<svg width="36" height="40" viewBox="0 0 72 73" fill="none" xmlns="http://www.w3.org/2000/svg">
<path d="M54 60.5L65.4728 49.0272C65.8104 48.6896 66 48.2318 66 47.7544V32C66 29.5147 63.9853 27.5 61.5 27.5V27.5C59.0147 27.5 57 29.5147 57 32V45.5" stroke="#EEF8FF" stroke-width="4.5" stroke-linecap="round" stroke-linejoin="round"/>
<path d="M54 48.5L56.5744 45.9256C56.8469 45.6531 57 45.2835 57 44.8981V44.8981C57 44.3477 56.689 43.8445 56.1967 43.5984L54.868 42.934C52.5581 41.779 49.7682 42.2318 47.9421 44.0579L45.2574 46.7426C44.1321 47.8679 43.5 49.394 43.5 50.9853V60.5" stroke="#EEF8FF" stroke-width="4.5" stroke-linecap="round" stroke-linejoin="round"/>
<path d="M18 60.5L6.52721 49.0272C6.18964 48.6896 6 48.2318 6 47.7544V32C6 29.5147 8.01472 27.5 10.5 27.5V27.5C12.9853 27.5 15 29.5147 15 32V45.5" stroke="#EEF8FF" stroke-width="4.5" stroke-linecap="round" stroke-linejoin="round"/>
<path d="M18 48.5L15.4256 45.9256C15.1531 45.6531 15 45.2835 15 44.8981V44.8981C15 44.3477 15.311 43.8445 15.8033 43.5984L17.132 42.934C19.4419 41.779 22.2318 42.2318 24.0579 44.0579L26.7426 46.7426C27.8679 47.8679 28.5 49.394 28.5 50.9853V60.5" stroke="#EEF8FF" stroke-width="4.5" stroke-linecap="round" stroke-linejoin="round"/>
<path d="M34.9836 6.5C38.2369 6.5 40.2703 10.0219 38.6436 12.8394C37.8886 14.147 36.4934 14.9525 34.9836 14.9525C31.7302 14.9525 29.6968 11.4306 31.3235 8.61313C32.0785 7.30552 33.4737 6.5 34.9836 6.5ZM39.7064 23.8593L40.8792 33.231C41.0482 34.6257 40.0656 35.883 38.6815 36.0626C37.2974 36.2422 36.0295 35.2491 35.8499 33.865L35.385 30.167H34.5821L34.1172 33.865C33.9481 35.2596 32.6802 36.2422 31.2856 36.0626C29.8909 35.883 28.9083 34.6257 29.0879 33.231L30.2607 23.8488L28.1687 25.6238C27.1016 26.5324 25.4956 26.3951 24.5975 25.3279C23.6995 24.2608 23.8262 22.6548 24.8934 21.7568L27.8412 19.2633C29.8381 17.5728 32.3738 16.643 34.9836 16.643C37.5933 16.643 40.129 17.5728 42.1259 19.2527L45.0737 21.7462C46.1409 22.6548 46.2782 24.2502 45.3696 25.3174C44.4609 26.3845 42.8655 26.5219 41.7984 25.6132L39.7064 23.8488V23.8593Z" fill="#EEF8FF"/>
</svg>
