<svg xmlns="http://www.w3.org/2000/svg"
                            width="36" height="40" viewBox="0 0 78 77" fill="none">
                            <path
                                d="M22.6364 57.8847C33.4812 57.8847 42.2727 50.4457 42.2727 41.2693C42.2727 32.0929 33.4812 24.6539 22.6364 24.6539C11.7915 24.6539 3 32.0929 3 41.2693C3 50.4457 11.7915 57.8847 22.6364 57.8847ZM22.6364 57.8847V68.9616M22.6364 74.5001V68.9616M22.6364 68.9616H16.0909M22.6364 68.9616H29.1818"
                                stroke="white" stroke-width="4.5" stroke-linecap="round" stroke-linejoin="round" />
                            <path
                                d="M56.124 18.415C52.5732 15.4249 47.678 13.5769 42.2727 13.5769C31.4279 13.5769 22.6364 21.0159 22.6364 30.1923C22.6364 39.3687 31.4279 46.8077 42.2727 46.8077C53.1176 46.8077 61.9091 39.3687 61.9091 30.1923C61.9091 25.5896 59.6973 21.424 56.124 18.415ZM56.124 18.415L75 2.5M75 2.5H61.9091M75 2.5V13.5769"
                                stroke="white" stroke-width="4.5" stroke-linecap="round" stroke-linejoin="round" />
                        </svg>